<?xml version="1.0" standalone="no"?><!DOCTYPE svg PUBLIC "-//W3C//DTD SVG 1.1//EN" "http://www.w3.org/Graphics/SVG/1.1/DTD/svg11.dtd"><svg t="1691072720304" class="icon" viewBox="0 0 1024 1024" version="1.1" xmlns="http://www.w3.org/2000/svg" p-id="16488" xmlns:xlink="http://www.w3.org/1999/xlink" width="200" height="200"><path d="M168 640c22.08 0 40 17.92 40 40v176a40 40 0 0 1-80 0v-176c0-22.08 17.92-40 40-40z m240-256c22.08 0 40 17.92 40 40v432a40 40 0 0 1-80 0v-432c0-22.08 17.92-40 40-40z m240 192c22.08 0 40 17.92 40 40v240a40 40 0 0 1-80 0v-240c0-22.08 17.92-40 40-40z m208-96c22.08 0 40 17.92 40 40v336a40 40 0 0 1-80 0v-336c0-22.08 17.92-40 40-40z" fill="#0678FF" p-id="16489"></path><path d="M99.712 419.712l261.664-261.664a32 32 0 0 1 45.248 0l210.752 210.784a32 32 0 0 0 45.248 0l205.12-205.12a40 40 0 0 1 53.28-2.912l3.264 2.912a40 40 0 0 1 2.912 53.312l-2.912 3.264-261.664 261.664a32 32 0 0 1-45.248 0l-210.752-210.784a32 32 0 0 0-45.248 0l-205.12 205.12a40 40 0 0 1-53.28 2.912l-3.264-2.912a40 40 0 0 1-2.912-53.312l2.912-3.264z" fill="#6AAEFF" p-id="16490"></path></svg>